Coordinates
version=1
nRows=4
nColumns=63
inDegrees=yes

Units are S.I. units (second, meters, Newtons, ...)
If the header above contains a line with 'inDegrees', this indicates whether rotational values are in degrees (yes) or radians (no).

endheader
time	pelvis_tilt	pelvis_list	pelvis_rotation	pelvis_tx	pelvis_ty	pelvis_tz	hip_flexion_r	hip_adduction_r	hip_rotation_r	knee_angle_r	knee_angle_r_beta	ankle_angle_r	subtalar_angle_r	mtp_angle_r	hip_flexion_l	hip_adduction_l	hip_rotation_l	knee_angle_l	knee_angle_l_beta	ankle_angle_l	subtalar_angle_l	mtp_angle_l	L5_S1_Flex_Ext	L5_S1_Lat_Bending	L5_S1_axial_rotation	L4_L5_Flex_Ext	L4_L5_Lat_Bending	L4_L5_axial_rotation	L3_L4_Flex_Ext	L3_L4_Lat_Bending	L3_L4_axial_rotation	L2_L3_Flex_Ext	L2_L3_Lat_Bending	L2_L3_axial_rotation	L1_L2_Flex_Ext	L1_L2_Lat_Bending	L1_L2_axial_rotation	L1_T12_Flex_Ext	L1_T12_Lat_Bending	L1_T12_axial_rotation	Abs_r3	Abs_r2	Abs_r1	Abs_t1	Abs_t2	neck_flexion	neck_bending	neck_rotation	arm_flex_r	arm_add_r	arm_rot_r	elbow_flex_r	pro_sup_r	wrist_flex_r	wrist_dev_r	arm_flex_l	arm_add_l	arm_rot_l	elbow_flex_l	pro_sup_l	wrist_flex_l	wrist_dev_l
     14.33333333	      4.06849034	      1.67890837	   -180.52132822	      0.05184602	      0.89612170	      0.96091469	     11.24086759	      2.74968930	    -14.08852868	     18.39797653	      0.32110527	   -341.45985144	      6.82729592	      0.00000000	     29.34189405	     -8.52601004	     -5.29939947	     75.43326722	      1.31655888	     16.68259764	     -8.60302510	      0.00000000	     -0.00761598	      0.19112805	      0.24110541	     -0.01414364	      0.25420030	      0.25617450	     -0.01251230	      0.46470873	      0.25617450	     -0.00870431	      0.46470873	      0.21096723	     -0.00707220	      0.38974831	      0.19589815	     -0.00435177	      0.29605734	      0.18082906	     -0.05440020	      2.16207869	      1.34095596	      0.00000000	      0.00000000	     -0.00000000	      0.00000000	     -0.00000000	     -0.55836281	    -16.63564610	     30.70767811	     22.98957599	     49.50933297	      0.00000000	      5.00000014	     -5.89734589	    -11.07731840	      1.71602335	     27.00397676	     44.61637177	      0.00000000	      5.00000014
     14.36666667	      4.42141027	      1.38160857	   -181.59528958	      0.02122303	      0.89792095	      0.96038236	      9.18330439	      2.69980348	    -12.21468604	     18.06264330	      0.31525260	   -340.54719832	      6.53454039	      0.00000000	     32.89330428	    -10.59625729	     -8.81260775	     70.31866769	      1.22729228	     22.76479860	      0.37609800	      0.00000000	     -0.00796017	      0.16371641	      0.47151695	     -0.01478283	      0.21774282	      0.50098676	     -0.01307776	      0.39806007	      0.50098676	     -0.00909768	      0.39806007	      0.41257733	     -0.00739181	      0.33385050	      0.38310752	     -0.00454844	      0.25359671	      0.35363771	     -0.05685868	      1.85199274	      2.62243580	      0.00000000	      0.00000000	     -0.00000000	      0.00000000	     -0.00000000	      1.84606217	    -16.71295610	     29.14331351	     23.88842727	     48.48416721	      0.00000000	      5.00000014	     -6.46694659	    -12.51567625	      8.93593556	     24.46599319	     45.84590310	      0.00000000	      5.00000014
     14.40000000	      5.03909603	      1.28569513	   -182.47116173	     -0.00789316	      0.89808150	      0.95998642	      7.56754335	      2.74997124	    -11.22655241	     17.68162714	      0.30860261	   -339.64165371	      6.40746601	      0.00000000	     35.55573800	    -12.02280554	    -12.11782241	     62.14386306	      1.08461502	     25.17754198	      8.09080113	      0.00000000	     -0.00886525	      0.15187982	      0.70120722	     -0.01646366	      0.20200017	      0.74503267	     -0.01456472	      0.36928060	      0.74503267	     -0.01013209	      0.36928060	      0.61355631	     -0.00823227	      0.30971334	      0.56973086	     -0.00506560	      0.23526185	      0.52590541	     -0.06332359	      1.71809495	      3.89990417	      0.00000000	      0.00000000	     -0.00000000	      0.00000000	     -0.00000000	      3.34947136	    -16.23209054	     23.63928510	     25.73362317	     46.21514034	      0.00000000	      5.00000014	     -6.77346795	    -14.31839551	     18.53369959	     22.93237745	     47.70335978	      0.00000000	      5.00000014
     14.43333333	      5.72157223	      1.51521644	   -183.27727294	     -0.03645848	      0.89651046	      0.96010432	      6.06508097	      2.93135014	    -11.57943997	     17.23595135	      0.30082410	   -338.46167902	      7.61933315	      0.00000000	     37.24425112	    -12.47841606	    -14.33803176	     52.10770831	      0.90945108	     23.75112188	     11.95470941	      0.00000000	     -0.00856105	      0.17399407	      0.90676356	     -0.01589873	      0.23141212	      0.96343628	     -0.01406495	      0.42304919	      0.96343628	     -0.00978443	      0.42304919	      0.79341811	     -0.00794979	      0.35480872	      0.73674539	     -0.00489179	      0.26951682	      0.68007267	     -0.06115075	      1.96825576	      5.04314687	      0.00000000	      0.00000000	     -0.00000000	      0.00000000	     -0.00000000	      4.76906554	    -15.86214360	     18.78608521	     27.95474118	     44.17351457	      0.00000000	      5.00000014	     -7.32146339	    -15.64515907	     26.32636346	     22.39913758	     49.11757600	      0.00000000	      5.00000014
